<?xml version="1.0"?>
<svg xmlns="http://www.w3.org/2000/svg" xmlns:xlink="http://www.w3.org/1999/xlink" width="4in" height="905" version="1.2"><defs><linearGradient y2="30%" y1="100%" x2="60%" x1="100%" id="folder-shade"><stop stop-color="#CCCC66" offset="0%"/><stop stop-color="yellow" offset="80%"/></linearGradient><linearGradient x2="90%" y2="100%" x1="0" y1="0" id="stroke-gradient"><stop stop-color="orange" offset="0%"/><stop stop-color="#CCCC66" offset="80%"/></linearGradient><rect stroke-width="0.25" fill="url(#folder-shade)" color="yellow" stroke-linejoin="round" id="front" stroke="url(#stroke-gradient)" height="15" width="20"/><path stroke-width=".5" fill="#888888" id="back" d="M1,0 H4 C7,0 5,2 8,3 H20 V18 H0 V3 C0,3 0,0 2,0 z"/><g transform="scale(0.7)" id="folder"><use transform="skewX(5)" xlink:href="#back"/><use transform="translate(3,4) scale(1,.95) skewX(-5)" xlink:href="#front"/></g><line stroke-width=".5" stroke="gray" x2="13" x1="3" id="full-line"/><line stroke-width=".5" stroke="gray" x2="7" x1="3" id="half-line"/><g transform="scale(.7,.7)" id="file-generic"><rect stroke-linejoin="bevel" stroke-width=".8" stroke="gray" fill="#EEEEEE" height="20" width="16"/><use transform="translate(0,3)" xlink:href="#full-line"/><use transform="translate(0,6)" xlink:href="#full-line"/><use transform="translate(0,9)" xlink:href="#half-line"/><use transform="translate(0,12)" xlink:href="#full-line"/><use transform="translate(0,15)" xlink:href="#half-line"/></g></defs><g transform="scale(0.7)"><g transform="translate(25,25)&#10;      "><use xlink:href="#folder"/><line stroke="black" y2="6" y1="6" x2="0" x1="-15"/><text font-weight="bold" font-size="10pt" y="12" x="20">my-project</text><g transform="&#10;&#9;translate(25,&#10;&#9;25&#10;      )"><use xlink:href="#file-generic"/><line stroke="black" y2="6" y1="6" x2="0" x1="-15"/><text font-weight="bold" font-size="10pt" y="12" x="20">log4j.log</text><line x1="-15" x2="-15" y1="6" y2="-10" stroke="black"/></g><g transform="&#10;&#9;translate(25,&#10;&#9;50&#10;      )"><use xlink:href="#file-generic"/><line stroke="black" y2="6" y1="6" x2="0" x1="-15"/><text font-weight="bold" font-size="10pt" y="12" x="20">pom.xml</text><line x1="-15" x2="-15" y1="6" y2="-35" stroke="black"/></g><g transform="translate(25,75)&#10;      "><use xlink:href="#folder"/><line stroke="black" y2="6" y1="6" x2="0" x1="-15"/><text font-weight="bold" font-size="10pt" y="12" x="20">src</text><g transform="translate(25,25)&#10;      "><use xlink:href="#folder"/><line stroke="black" y2="6" y1="6" x2="0" x1="-15"/><text font-weight="bold" font-size="10pt" y="12" x="20">main</text><g transform="translate(25,25)&#10;      "><use xlink:href="#folder"/><line stroke="black" y2="6" y1="6" x2="0" x1="-15"/><text font-weight="bold" font-size="10pt" y="12" x="20">java</text><g transform="translate(25,25)&#10;      "><use xlink:href="#folder"/><line stroke="black" y2="6" y1="6" x2="0" x1="-15"/><text font-weight="bold" font-size="10pt" y="12" x="20">example</text><g transform="&#10;&#9;translate(25,&#10;&#9;25&#10;      )"><use xlink:href="#file-generic"/><line stroke="black" y2="6" y1="6" x2="0" x1="-15"/><text font-weight="bold" font-size="10pt" y="12" x="20">HomePage.html</text><line x1="-15" x2="-15" y1="6" y2="-10" stroke="black"/></g><g transform="&#10;&#9;translate(25,&#10;&#9;50&#10;      )"><use xlink:href="#file-generic"/><line stroke="black" y2="6" y1="6" x2="0" x1="-15"/><text font-weight="bold" font-size="10pt" y="12" x="20">HomePage.java</text><line x1="-15" x2="-15" y1="6" y2="-35" stroke="black"/></g><g transform="translate(25,75)&#10;      "><use xlink:href="#folder"/><line stroke="black" y2="6" y1="6" x2="0" x1="-15"/><text font-weight="bold" font-size="10pt" y="12" x="20">models</text><g transform="&#10;&#9;translate(25,&#10;&#9;25&#10;      )"><use xlink:href="#file-generic"/><line stroke="black" y2="6" y1="6" x2="0" x1="-15"/><text font-weight="bold" font-size="10pt" y="12" x="20">ProductModel.java</text><line x1="-15" x2="-15" y1="6" y2="-10" stroke="black"/></g><line x1="-15" x2="-15" y1="6" y2="-60" stroke="black"/></g><g transform="translate(25,125)&#10;      "><use xlink:href="#folder"/><line stroke="black" y2="6" y1="6" x2="0" x1="-15"/><text font-weight="bold" font-size="10pt" y="12" x="20">properties</text><g transform="&#10;&#9;translate(25,&#10;&#9;25&#10;      )"><use xlink:href="#file-generic"/><line stroke="black" y2="6" y1="6" x2="0" x1="-15"/><text font-weight="bold" font-size="10pt" y="12" x="20">ProductsPage.html</text><line x1="-15" x2="-15" y1="6" y2="-10" stroke="black"/></g><g transform="&#10;&#9;translate(25,&#10;&#9;50&#10;      )"><use xlink:href="#file-generic"/><line stroke="black" y2="6" y1="6" x2="0" x1="-15"/><text font-weight="bold" font-size="10pt" y="12" x="20">ProductsPage.java</text><line x1="-15" x2="-15" y1="6" y2="-35" stroke="black"/></g><g transform="translate(25,75)&#10;      "><use xlink:href="#folder"/><line stroke="black" y2="6" y1="6" x2="0" x1="-15"/><text font-weight="bold" font-size="10pt" y="12" x="20">components</text><g transform="&#10;&#9;translate(25,&#10;&#9;25&#10;      )"><use xlink:href="#file-generic"/><line stroke="black" y2="6" y1="6" x2="0" x1="-15"/><text font-weight="bold" font-size="10pt" y="12" x="20">ProductDetails.html</text><line x1="-15" x2="-15" y1="6" y2="-10" stroke="black"/></g><g transform="&#10;&#9;translate(25,&#10;&#9;50&#10;      )"><use xlink:href="#file-generic"/><line stroke="black" y2="6" y1="6" x2="0" x1="-15"/><text font-weight="bold" font-size="10pt" y="12" x="20">ProductDetails.java</text><line x1="-15" x2="-15" y1="6" y2="-35" stroke="black"/></g><g transform="&#10;&#9;translate(25,&#10;&#9;75&#10;      )"><use xlink:href="#file-generic"/><line stroke="black" y2="6" y1="6" x2="0" x1="-15"/><text font-weight="bold" font-size="10pt" y="12" x="20">ProductsList.html</text><line x1="-15" x2="-15" y1="6" y2="-60" stroke="black"/></g><g transform="&#10;&#9;translate(25,&#10;&#9;100&#10;      )"><use xlink:href="#file-generic"/><line stroke="black" y2="6" y1="6" x2="0" x1="-15"/><text font-weight="bold" font-size="10pt" y="12" x="20">ProductsList.java</text><line x1="-15" x2="-15" y1="6" y2="-85" stroke="black"/></g><line x1="-15" x2="-15" y1="6" y2="-60" stroke="black"/></g><line x1="-15" x2="-15" y1="6" y2="-110" stroke="black"/></g><line x1="-15" x2="-15" y1="6" y2="-10" stroke="black"/></g><line x1="-15" x2="-15" y1="6" y2="-10" stroke="black"/></g><g transform="translate(25,375)&#10;      "><use xlink:href="#folder"/><line stroke="black" y2="6" y1="6" x2="0" x1="-15"/><text font-weight="bold" font-size="10pt" y="12" x="20">resources</text><g transform="&#10;&#9;translate(25,&#10;&#9;25&#10;      )"><use xlink:href="#file-generic"/><line stroke="black" y2="6" y1="6" x2="0" x1="-15"/><text font-weight="bold" font-size="10pt" y="12" x="20">log4j.properties</text><line x1="-15" x2="-15" y1="6" y2="-10" stroke="black"/></g><line x1="-15" x2="-15" y1="6" y2="-360" stroke="black"/></g><g transform="translate(25,425)&#10;      "><use xlink:href="#folder"/><line stroke="black" y2="6" y1="6" x2="0" x1="-15"/><text font-weight="bold" font-size="10pt" y="12" x="20">webapp</text><g transform="translate(25,25)&#10;      "><use xlink:href="#folder"/><line stroke="black" y2="6" y1="6" x2="0" x1="-15"/><text font-weight="bold" font-size="10pt" y="12" x="20">WEB-INF</text><g transform="&#10;&#9;translate(25,&#10;&#9;25&#10;      )"><use xlink:href="#file-generic"/><line stroke="black" y2="6" y1="6" x2="0" x1="-15"/><text font-weight="bold" font-size="10pt" y="12" x="20">geronimo-web.xml</text><line x1="-15" x2="-15" y1="6" y2="-10" stroke="black"/></g><g transform="&#10;&#9;translate(25,&#10;&#9;50&#10;      )"><use xlink:href="#file-generic"/><line stroke="black" y2="6" y1="6" x2="0" x1="-15"/><text font-weight="bold" font-size="10pt" y="12" x="20">web.xml</text><line x1="-15" x2="-15" y1="6" y2="-35" stroke="black"/></g><line x1="-15" x2="-15" y1="6" y2="-10" stroke="black"/></g><line x1="-15" x2="-15" y1="6" y2="-410" stroke="black"/></g><line x1="-15" x2="-15" y1="6" y2="-10" stroke="black"/></g><g transform="translate(25,550)&#10;      "><use xlink:href="#folder"/><line stroke="black" y2="6" y1="6" x2="0" x1="-15"/><text font-weight="bold" font-size="10pt" y="12" x="20">test</text><g transform="translate(25,25)&#10;      "><use xlink:href="#folder"/><line stroke="black" y2="6" y1="6" x2="0" x1="-15"/><text font-weight="bold" font-size="10pt" y="12" x="20">java</text><g transform="translate(25,25)&#10;      "><use xlink:href="#folder"/><line stroke="black" y2="6" y1="6" x2="0" x1="-15"/><text font-weight="bold" font-size="10pt" y="12" x="20">example</text><line x1="-15" x2="-15" y1="6" y2="-10" stroke="black"/></g><line x1="-15" x2="-15" y1="6" y2="-10" stroke="black"/></g><line x1="-15" x2="-15" y1="6" y2="-535" stroke="black"/></g><line x1="-15" x2="-15" y1="6" y2="-60" stroke="black"/></g><line x1="-15" x2="-15" y1="6" y2="-10" stroke="black"/></g></g></svg>
